<svg width="132" height="113" viewBox="0 0 132 113" fill="none" xmlns="http://www.w3.org/2000/svg">
<path d="M85.115 112.177L122.507 112.177C127.668 112.177 131.855 107.989 131.855 102.829L131.855 65.4367C131.855 60.2766 127.668 56.0886 122.507 56.0886L94.4631 56.0886C94.4631 35.4667 111.234 18.6962 131.855 18.6962L131.855 1.52588e-05C100.923 1.25546e-05 75.7669 25.1558 75.7669 56.0886L75.7669 102.829C75.7669 107.989 79.9548 112.177 85.115 112.177Z" fill="#E7E7E7"/>
<path d="M10.3259 112.177L47.7183 112.177C52.8785 112.177 57.0664 107.989 57.0664 102.829L57.0664 65.4367C57.0664 60.2766 52.8785 56.0886 47.7183 56.0886L19.674 56.0886C19.674 35.4667 36.4445 18.6962 57.0664 18.6962L57.0664 3.05176e-05C26.1335 2.78133e-05 0.977806 25.1558 0.977803 56.0886L0.977799 102.829C0.977799 107.989 5.16574 112.177 10.3259 112.177Z" fill="#E7E7E7"/>
</svg>
